<?xml version="1.0" encoding="UTF-8" standalone="no"?>
<!-- Created with Inkscape (http://www.inkscape.org/) -->

<svg
   xmlns:dc="http://purl.org/dc/elements/1.1/"
   xmlns:cc="http://creativecommons.org/ns#"
   xmlns:rdf="http://www.w3.org/1999/02/22-rdf-syntax-ns#"
   xmlns:svg="http://www.w3.org/2000/svg"
   xmlns="http://www.w3.org/2000/svg"
   xmlns:sodipodi="http://sodipodi.sourceforge.net/DTD/sodipodi-0.dtd"
   xmlns:inkscape="http://www.inkscape.org/namespaces/inkscape"
   id="svg2"
   version="1.1"
   inkscape:version="0.48.4 r9939"
   width="577.81708"
   height="115.07548"
   xml:space="preserve"
   sodipodi:docname="diagrama_puntos.svg"
   inkscape:export-filename="/home/antalcides/Escritorio/diagrama_puntos.png"
   inkscape:export-xdpi="90"
   inkscape:export-ydpi="90"><metadata
     id="metadata8"><rdf:RDF><cc:Work
         rdf:about=""><dc:format>image/svg+xml</dc:format><dc:type
           rdf:resource="http://purl.org/dc/dcmitype/StillImage" /><dc:title></dc:title></cc:Work></rdf:RDF></metadata><defs
     id="defs6" /><sodipodi:namedview
     pagecolor="#ffffff"
     bordercolor="#666666"
     borderopacity="1"
     objecttolerance="10"
     gridtolerance="10"
     guidetolerance="10"
     inkscape:pageopacity="0"
     inkscape:pageshadow="2"
     inkscape:window-width="640"
     inkscape:window-height="480"
     id="namedview4"
     showgrid="false"
     fit-margin-top="0"
     fit-margin-left="0"
     fit-margin-right="0"
     fit-margin-bottom="0"
     inkscape:zoom="0.23838384"
     inkscape:cx="343.02388"
     inkscape:cy="-15.56677"
     inkscape:window-x="38"
     inkscape:window-y="24"
     inkscape:window-maximized="0"
     inkscape:current-layer="g10" /><g
     id="g10"
     inkscape:groupmode="layer"
     inkscape:label="diagrama_puntos"
     transform="matrix(1.25,0,0,-1.25,-39.476125,625.64225)"><g
       id="g12"
       transform="translate(-1692,-1602)"><path
         d="M 1724.5809,2022.5971 2171,2023"
         style="fill:none;stroke:#231f20;stroke-width:1;stroke-linecap:butt;stroke-linejoin:miter;stroke-miterlimit:3.86369991;stroke-opacity:1;stroke-dasharray:none"
         id="path14"
         inkscape:connector-curvature="0" /><path
         d="M 1724.5809,2022.5971 2171,2023"
         style="fill:none;stroke:#231f20;stroke-width:2;stroke-linecap:butt;stroke-linejoin:miter;stroke-miterlimit:3.86360002;stroke-opacity:1;stroke-dasharray:none"
         id="path16"
         inkscape:connector-curvature="0" /><path
         d="m 1780.1938,2097.7597 c 0,2.3495 1.9046,4.2541 4.254,4.2541 2.3495,0 4.2541,-1.9046 4.2541,-4.2541 0,-2.3494 -1.9046,-4.254 -4.2541,-4.254 -2.3494,0 -4.254,1.9046 -4.254,4.254 z"
         style="fill:#0099ff;fill-opacity:1;fill-rule:nonzero;stroke:#000000;stroke-width:1;stroke-linecap:butt;stroke-linejoin:miter;stroke-miterlimit:3.86369991;stroke-opacity:1;stroke-dasharray:none"
         id="path18"
         inkscape:connector-curvature="0" /><path
         d="m 1781.5509,2068.8487 c 0,2.3495 1.9045,4.254 4.254,4.254 2.3495,0 4.2541,-1.9045 4.2541,-4.254 0,-2.3495 -1.9046,-4.2541 -4.2541,-4.2541 -2.3495,0 -4.254,1.9046 -4.254,4.2541 z"
         style="fill:#0099ff;fill-opacity:1;fill-rule:nonzero;stroke:#000000;stroke-width:1;stroke-linecap:butt;stroke-linejoin:miter;stroke-miterlimit:3.86369991;stroke-opacity:1;stroke-dasharray:none"
         id="path20"
         inkscape:connector-curvature="0" /><path
         d="m 1781.9482,2042.5855 c 0,2.3495 1.9046,4.2541 4.254,4.2541 2.3495,0 4.2541,-1.9046 4.2541,-4.2541 0,-2.3494 -1.9046,-4.254 -4.2541,-4.254 -2.3494,0 -4.254,1.9046 -4.254,4.254 z"
         style="fill:#0099ff;fill-opacity:1;fill-rule:nonzero;stroke:#000000;stroke-width:1;stroke-linecap:butt;stroke-linejoin:miter;stroke-miterlimit:3.86369991;stroke-opacity:1;stroke-dasharray:none"
         id="path22"
         inkscape:connector-curvature="0" /><path
         d="m 1739.3225,2041.9942 c 0,2.3494 1.9045,4.254 4.254,4.254 2.3495,0 4.254,-1.9046 4.254,-4.254 0,-2.3495 -1.9045,-4.2541 -4.254,-4.2541 -2.3495,0 -4.254,1.9046 -4.254,4.2541 z"
         style="fill:#0099ff;fill-opacity:1;fill-rule:nonzero;stroke:#000000;stroke-width:1;stroke-linecap:butt;stroke-linejoin:miter;stroke-miterlimit:3.86369991;stroke-opacity:1;stroke-dasharray:none"
         id="path24"
         inkscape:connector-curvature="0" /><path
         d="m 1824.8569,2069.0798 c 0,2.3495 1.9046,4.2541 4.2541,4.2541 2.3494,0 4.254,-1.9046 4.254,-4.2541 0,-2.3494 -1.9046,-4.254 -4.254,-4.254 -2.3495,0 -4.2541,1.9046 -4.2541,4.254 z"
         style="fill:#0099ff;fill-opacity:1;fill-rule:nonzero;stroke:#000000;stroke-width:1;stroke-linecap:butt;stroke-linejoin:miter;stroke-miterlimit:3.86369991;stroke-opacity:1;stroke-dasharray:none"
         id="path26"
         inkscape:connector-curvature="0" /><path
         d="m 1824.8569,2043.1769 c 0,2.3495 1.9046,4.2541 4.254,4.2541 2.3495,0 4.2541,-1.9046 4.2541,-4.2541 0,-2.3494 -1.9046,-4.254 -4.2541,-4.254 -2.3494,0 -4.254,1.9046 -4.254,4.254 z"
         style="fill:#0099ff;fill-opacity:1;fill-rule:nonzero;stroke:#000000;stroke-width:1;stroke-linecap:butt;stroke-linejoin:miter;stroke-miterlimit:3.86369991;stroke-opacity:1;stroke-dasharray:none"
         id="path28"
         inkscape:connector-curvature="0" /><path
         d="m 1871.9702,2043.1769 c 0,2.3495 1.9046,4.2541 4.254,4.2541 2.3495,0 4.2541,-1.9046 4.2541,-4.2541 0,-2.3494 -1.9046,-4.254 -4.2541,-4.254 -2.3494,0 -4.254,1.9046 -4.254,4.254 z"
         style="fill:#0099ff;fill-opacity:1;fill-rule:nonzero;stroke:#000000;stroke-width:1;stroke-linecap:butt;stroke-linejoin:miter;stroke-miterlimit:3.86369991;stroke-opacity:1;stroke-dasharray:none"
         id="path30"
         inkscape:connector-curvature="0" /><path
         d="m 1914.5107,2043.5555 c 0,2.3495 1.9046,4.2541 4.254,4.2541 2.3495,0 4.2541,-1.9046 4.2541,-4.2541 0,-2.3494 -1.9046,-4.254 -4.2541,-4.254 -2.3494,0 -4.254,1.9046 -4.254,4.254 z"
         style="fill:#0099ff;fill-opacity:1;fill-rule:nonzero;stroke:#000000;stroke-width:1;stroke-linecap:butt;stroke-linejoin:miter;stroke-miterlimit:3.86369991;stroke-opacity:1;stroke-dasharray:none"
         id="path32"
         inkscape:connector-curvature="0" /><path
         d="m 1957.0511,2043.1769 c 0,2.3495 1.9046,4.2541 4.2541,4.2541 2.3494,0 4.254,-1.9046 4.254,-4.2541 0,-2.3494 -1.9046,-4.254 -4.254,-4.254 -2.3495,0 -4.2541,1.9046 -4.2541,4.254 z"
         style="fill:#0099ff;fill-opacity:1;fill-rule:nonzero;stroke:#000000;stroke-width:1;stroke-linecap:butt;stroke-linejoin:miter;stroke-miterlimit:3.86369991;stroke-opacity:1;stroke-dasharray:none"
         id="path34"
         inkscape:connector-curvature="0" /><path
         d="m 2162.3812,2047.7498 c 0,2.3494 1.9045,4.254 4.254,4.254 2.3495,0 4.2541,-1.9046 4.2541,-4.254 0,-2.3495 -1.9046,-4.2541 -4.2541,-4.2541 -2.3495,0 -4.254,1.9046 -4.254,4.2541 z"
         style="fill:#0099ff;fill-opacity:1;fill-rule:nonzero;stroke:#000000;stroke-width:1;stroke-linecap:butt;stroke-linejoin:miter;stroke-miterlimit:3.86369991;stroke-opacity:1;stroke-dasharray:none"
         id="path36"
         inkscape:connector-curvature="0" /><path
         d="m 1743.344,2021.5053 0,6.9838"
         style="fill:none;stroke:#231f20;stroke-width:1;stroke-linecap:butt;stroke-linejoin:miter;stroke-miterlimit:3.86369991;stroke-opacity:1;stroke-dasharray:none"
         id="path38"
         inkscape:connector-curvature="0" /><path
         d="m 1786.7,2022.2902 0,6.9839"
         style="fill:none;stroke:#231f20;stroke-width:1;stroke-linecap:butt;stroke-linejoin:miter;stroke-miterlimit:3.86369991;stroke-opacity:1;stroke-dasharray:none"
         id="path40"
         inkscape:connector-curvature="0" /><path
         d="m 1829.111,2022.6688 0,6.9839"
         style="fill:none;stroke:#231f20;stroke-width:1;stroke-linecap:butt;stroke-linejoin:miter;stroke-miterlimit:3.86369991;stroke-opacity:1;stroke-dasharray:none"
         id="path42"
         inkscape:connector-curvature="0" /><path
         d="m 1877.1109,2022.2902 0,6.9839"
         style="fill:none;stroke:#231f20;stroke-width:1;stroke-linecap:butt;stroke-linejoin:miter;stroke-miterlimit:3.86369991;stroke-opacity:1;stroke-dasharray:none"
         id="path44"
         inkscape:connector-curvature="0" /><path
         d="m 1919.5036,2021.9296 0,6.9838"
         style="fill:none;stroke:#231f20;stroke-width:1;stroke-linecap:butt;stroke-linejoin:miter;stroke-miterlimit:3.86369991;stroke-opacity:1;stroke-dasharray:none"
         id="path46"
         inkscape:connector-curvature="0" /><path
         d="m 1961.3052,2021.9296 0,6.9838"
         style="fill:none;stroke:#231f20;stroke-width:1;stroke-linecap:butt;stroke-linejoin:miter;stroke-miterlimit:3.86369991;stroke-opacity:1;stroke-dasharray:none"
         id="path48"
         inkscape:connector-curvature="0" /><path
         d="m 2166.7647,2021.9296 0,6.9838"
         style="fill:none;stroke:#231f20;stroke-width:1;stroke-linecap:butt;stroke-linejoin:miter;stroke-miterlimit:3.86369991;stroke-opacity:1;stroke-dasharray:none"
         id="path50"
         inkscape:connector-curvature="0" /><text
         transform="matrix(1,0,0,-1,1724.5,2010.5999)"
         id="text52"><tspan
           style="font-size:12px;font-variant:normal;font-weight:bold;writing-mode:lr-tb;fill:#231f20;fill-opacity:1;fill-rule:nonzero;stroke:none;font-family:Arial;-inkscape-font-specification:Arial Bold"
           x="0 6.6719999 13.344 16.68 23.351999 30.024"
           y="0"
           sodipodi:role="line"
           id="tspan54">74.000</tspan></text>
<text
         transform="matrix(1,0,0,-1,1767,2010.5999)"
         id="text56"><tspan
           style="font-size:12px;font-variant:normal;font-weight:bold;writing-mode:lr-tb;fill:#231f20;fill-opacity:1;fill-rule:nonzero;stroke:none;font-family:Arial;-inkscape-font-specification:Arial Bold"
           x="0 6.6719999 13.344 16.68 23.351999 30.024"
           y="0"
           sodipodi:role="line"
           id="tspan58">74.001</tspan></text>
<text
         transform="matrix(1,0,0,-1,1810.5,2011.0999)"
         id="text60"><tspan
           style="font-size:12px;font-variant:normal;font-weight:bold;writing-mode:lr-tb;fill:#231f20;fill-opacity:1;fill-rule:nonzero;stroke:none;font-family:Arial;-inkscape-font-specification:Arial Bold"
           x="0 6.6719999 13.344 16.68 23.351999 30.024"
           y="0"
           sodipodi:role="line"
           id="tspan62">74.002</tspan></text>
<text
         transform="matrix(1,0,0,-1,1858.5,2011.0999)"
         id="text64"><tspan
           style="font-size:12px;font-variant:normal;font-weight:bold;writing-mode:lr-tb;fill:#231f20;fill-opacity:1;fill-rule:nonzero;stroke:none;font-family:Arial;-inkscape-font-specification:Arial Bold"
           x="0 6.6719999 13.344 16.68 23.351999 30.024"
           y="0"
           sodipodi:role="line"
           id="tspan66">74.003</tspan></text>
<text
         transform="matrix(1,0,0,-1,1902.5,2011.0999)"
         id="text68"><tspan
           style="font-size:12px;font-variant:normal;font-weight:bold;writing-mode:lr-tb;fill:#231f20;fill-opacity:1;fill-rule:nonzero;stroke:none;font-family:Arial;-inkscape-font-specification:Arial Bold"
           x="0 6.6719999 13.344 16.68 23.351999 30.024"
           y="0"
           sodipodi:role="line"
           id="tspan70">74.004</tspan></text>
<text
         transform="matrix(1,0,0,-1,1945.5,2010.5999)"
         id="text72"><tspan
           style="font-size:12px;font-variant:normal;font-weight:bold;writing-mode:lr-tb;fill:#231f20;fill-opacity:1;fill-rule:nonzero;stroke:none;font-family:Arial;-inkscape-font-specification:Arial Bold"
           x="0 6.6719999 13.344 16.68 23.351999 30.024"
           y="0"
           sodipodi:role="line"
           id="tspan74">74.005</tspan></text>
<text
         transform="matrix(1,0,0,-1,2149.5,2011.0999)"
         id="text76"><tspan
           style="font-size:12px;font-variant:normal;font-weight:bold;writing-mode:lr-tb;fill:#231f20;fill-opacity:1;fill-rule:nonzero;stroke:none;font-family:Arial;-inkscape-font-specification:Arial Bold"
           x="0 6.6719999 13.344 16.68 23.351999 30.024"
           y="0"
           sodipodi:role="line"
           id="tspan78">74.015</tspan></text>
</g></g></svg>