<?xml version="1.0" encoding="UTF-8" standalone="no"?>
<!-- Created with Inkscape (http://www.inkscape.org/) -->

<svg
   xmlns:dc="http://purl.org/dc/elements/1.1/"
   xmlns:cc="http://creativecommons.org/ns#"
   xmlns:rdf="http://www.w3.org/1999/02/22-rdf-syntax-ns#"
   xmlns:svg="http://www.w3.org/2000/svg"
   xmlns="http://www.w3.org/2000/svg"
   xmlns:sodipodi="http://sodipodi.sourceforge.net/DTD/sodipodi-0.dtd"
   xmlns:inkscape="http://www.inkscape.org/namespaces/inkscape"
   id="svg2"
   version="1.1"
   inkscape:version="0.48.4 r9939"
   width="916.19751"
   height="142.80935"
   xml:space="preserve"
   sodipodi:docname="Diagrama de Puntos Paso # 2.pdf"><metadata
     id="metadata8"><rdf:RDF><cc:Work
         rdf:about=""><dc:format>image/svg+xml</dc:format><dc:type
           rdf:resource="http://purl.org/dc/dcmitype/StillImage" /><dc:title></dc:title></cc:Work></rdf:RDF></metadata><defs
     id="defs6" /><sodipodi:namedview
     pagecolor="#ffffff"
     bordercolor="#666666"
     borderopacity="1"
     objecttolerance="10"
     gridtolerance="10"
     guidetolerance="10"
     inkscape:pageopacity="0"
     inkscape:pageshadow="2"
     inkscape:window-width="1328"
     inkscape:window-height="744"
     id="namedview4"
     showgrid="false"
     showguides="true"
     inkscape:guide-bbox="true"
     inkscape:zoom="1.3119442"
     inkscape:cx="458.09875"
     inkscape:cy="71.404678"
     inkscape:window-x="38"
     inkscape:window-y="24"
     inkscape:window-maximized="1"
     inkscape:current-layer="g10" /><g
     id="g10"
     inkscape:groupmode="layer"
     inkscape:label="Diagrama de Puntos Paso # 2"
     transform="matrix(1.25,0,0,-1.25,0,142.80935)"><path
       inkscape:connector-curvature="0"
       id="path14"
       style="fill:none;stroke:#231f20;stroke-width:1;stroke-linecap:butt;stroke-linejoin:miter;stroke-miterlimit:3.86369991;stroke-opacity:1;stroke-dasharray:none"
       d="m 3.75,23.255 725.457,0" /><path
       inkscape:connector-curvature="0"
       id="path16"
       style="fill:none;stroke:#231f20;stroke-width:4;stroke-linecap:butt;stroke-linejoin:miter;stroke-miterlimit:3.86360002;stroke-opacity:1;stroke-dasharray:none"
       d="m 3.75,23.255 725.457,0" /><path
       inkscape:connector-curvature="0"
       id="path18"
       style="fill:none;stroke:#231f20;stroke-width:4;stroke-linecap:square;stroke-linejoin:miter;stroke-miterlimit:3.86369991;stroke-opacity:1;stroke-dasharray:none"
       d="M 15.418,18.591 2,23.255 15.418,27.923" /><path
       inkscape:connector-curvature="0"
       id="path20"
       style="fill:none;stroke:#231f20;stroke-width:4;stroke-linecap:square;stroke-linejoin:miter;stroke-miterlimit:3.86369991;stroke-opacity:1;stroke-dasharray:none"
       d="m 717.543,27.923 13.414,-4.668 -13.414,-4.664" /><path
       inkscape:connector-curvature="0"
       id="path22"
       style="fill:none;stroke:#231f20;stroke-width:1;stroke-linecap:butt;stroke-linejoin:miter;stroke-miterlimit:3.86369991;stroke-opacity:1;stroke-dasharray:none"
       d="m 484.773,36.423 0,-24.91" /><path
       inkscape:connector-curvature="0"
       id="path24"
       style="fill:none;stroke:#231f20;stroke-width:2;stroke-linecap:butt;stroke-linejoin:miter;stroke-miterlimit:3.86360002;stroke-opacity:1;stroke-dasharray:none"
       d="m 484.773,36.423 0,-24.91" /><path
       inkscape:connector-curvature="0"
       id="path26"
       style="fill:none;stroke:#231f20;stroke-width:1;stroke-linecap:butt;stroke-linejoin:miter;stroke-miterlimit:3.86369991;stroke-opacity:1;stroke-dasharray:none"
       d="m 447.504,36.056 0,-24.91" /><path
       inkscape:connector-curvature="0"
       id="path28"
       style="fill:none;stroke:#231f20;stroke-width:2;stroke-linecap:butt;stroke-linejoin:miter;stroke-miterlimit:3.86360002;stroke-opacity:1;stroke-dasharray:none"
       d="m 447.504,36.056 0,-24.91" /><path
       inkscape:connector-curvature="0"
       id="path30"
       style="fill:none;stroke:#231f20;stroke-width:1;stroke-linecap:butt;stroke-linejoin:miter;stroke-miterlimit:3.86369991;stroke-opacity:1;stroke-dasharray:none"
       d="m 416.41,36.529 0,-24.91" /><path
       inkscape:connector-curvature="0"
       id="path32"
       style="fill:none;stroke:#231f20;stroke-width:2;stroke-linecap:butt;stroke-linejoin:miter;stroke-miterlimit:3.86360002;stroke-opacity:1;stroke-dasharray:none"
       d="m 416.41,36.529 0,-24.91" /><path
       inkscape:connector-curvature="0"
       id="path34"
       style="fill:none;stroke:#231f20;stroke-width:1;stroke-linecap:butt;stroke-linejoin:miter;stroke-miterlimit:3.86369991;stroke-opacity:1;stroke-dasharray:none"
       d="m 383.391,36.529 0.472,-24.91" /><path
       inkscape:connector-curvature="0"
       id="path36"
       style="fill:none;stroke:#231f20;stroke-width:2;stroke-linecap:butt;stroke-linejoin:miter;stroke-miterlimit:3.86360002;stroke-opacity:1;stroke-dasharray:none"
       d="m 383.391,36.529 0.472,-24.91" /><path
       inkscape:connector-curvature="0"
       id="path38"
       style="fill:none;stroke:#231f20;stroke-width:1;stroke-linecap:butt;stroke-linejoin:miter;stroke-miterlimit:3.86369991;stroke-opacity:1;stroke-dasharray:none"
       d="m 215.504,36.529 0,-24.91" /><path
       inkscape:connector-curvature="0"
       id="path40"
       style="fill:none;stroke:#231f20;stroke-width:2;stroke-linecap:butt;stroke-linejoin:miter;stroke-miterlimit:3.86360002;stroke-opacity:1;stroke-dasharray:none"
       d="m 215.504,36.529 0,-24.91" /><path
       inkscape:connector-curvature="0"
       id="path42"
       style="fill:none;stroke:#231f20;stroke-width:1;stroke-linecap:butt;stroke-linejoin:miter;stroke-miterlimit:3.86369991;stroke-opacity:1;stroke-dasharray:none"
       d="m 180.051,36.529 0,-24.91" /><path
       inkscape:connector-curvature="0"
       id="path44"
       style="fill:none;stroke:#231f20;stroke-width:2;stroke-linecap:butt;stroke-linejoin:miter;stroke-miterlimit:3.86360002;stroke-opacity:1;stroke-dasharray:none"
       d="m 180.051,36.529 0,-24.91" /><path
       inkscape:connector-curvature="0"
       id="path46"
       style="fill:none;stroke:#231f20;stroke-width:1;stroke-linecap:butt;stroke-linejoin:miter;stroke-miterlimit:3.86369991;stroke-opacity:1;stroke-dasharray:none"
       d="m 149.57,36.529 -0.343,-24.91" /><path
       inkscape:connector-curvature="0"
       id="path48"
       style="fill:none;stroke:#231f20;stroke-width:2;stroke-linecap:butt;stroke-linejoin:miter;stroke-miterlimit:3.86360002;stroke-opacity:1;stroke-dasharray:none"
       d="m 149.57,36.529 -0.343,-24.91" /><path
       inkscape:connector-curvature="0"
       id="path50"
       style="fill:none;stroke:#231f20;stroke-width:2;stroke-linecap:butt;stroke-linejoin:miter;stroke-miterlimit:3.86360002;stroke-opacity:1;stroke-dasharray:none"
       d="m 149.57,36.529 -0.343,-24.91" /><path
       inkscape:connector-curvature="0"
       id="path52"
       style="fill:none;stroke:#231f20;stroke-width:1;stroke-linecap:butt;stroke-linejoin:miter;stroke-miterlimit:3.86369991;stroke-opacity:1;stroke-dasharray:none"
       d="m 281.75,36.529 0.566,-24.91" /><path
       inkscape:connector-curvature="0"
       id="path54"
       style="fill:none;stroke:#231f20;stroke-width:2;stroke-linecap:butt;stroke-linejoin:miter;stroke-miterlimit:3.86360002;stroke-opacity:1;stroke-dasharray:none"
       d="m 281.75,36.529 0.566,-24.91" /><path
       inkscape:connector-curvature="0"
       id="path56"
       style="fill:none;stroke:#231f20;stroke-width:1;stroke-linecap:butt;stroke-linejoin:miter;stroke-miterlimit:3.86369991;stroke-opacity:1;stroke-dasharray:none"
       d="m 249.32,36.529 0,-24.91" /><path
       inkscape:connector-curvature="0"
       id="path58"
       style="fill:none;stroke:#231f20;stroke-width:2;stroke-linecap:butt;stroke-linejoin:miter;stroke-miterlimit:3.86360002;stroke-opacity:1;stroke-dasharray:none"
       d="m 249.32,36.529 0,-24.91" /><path
       inkscape:connector-curvature="0"
       id="path60"
       style="fill:none;stroke:#231f20;stroke-width:1;stroke-linecap:butt;stroke-linejoin:miter;stroke-miterlimit:3.86369991;stroke-opacity:1;stroke-dasharray:none"
       d="m 316.684,36.529 0,-24.91" /><path
       inkscape:connector-curvature="0"
       id="path62"
       style="fill:none;stroke:#231f20;stroke-width:2;stroke-linecap:butt;stroke-linejoin:miter;stroke-miterlimit:3.86360002;stroke-opacity:1;stroke-dasharray:none"
       d="m 316.684,36.529 0,-24.91" /><path
       inkscape:connector-curvature="0"
       id="path64"
       style="fill:none;stroke:#231f20;stroke-width:1;stroke-linecap:butt;stroke-linejoin:miter;stroke-miterlimit:3.86369991;stroke-opacity:1;stroke-dasharray:none"
       d="m 116.586,35.966 0,-24.91" /><path
       inkscape:connector-curvature="0"
       id="path66"
       style="fill:none;stroke:#231f20;stroke-width:2;stroke-linecap:butt;stroke-linejoin:miter;stroke-miterlimit:3.86360002;stroke-opacity:1;stroke-dasharray:none"
       d="m 116.586,35.966 0,-24.91" /><path
       inkscape:connector-curvature="0"
       id="path68"
       style="fill:none;stroke:#231f20;stroke-width:1;stroke-linecap:butt;stroke-linejoin:miter;stroke-miterlimit:3.86369991;stroke-opacity:1;stroke-dasharray:none"
       d="m 349.57,36.529 0.567,-24.91" /><path
       inkscape:connector-curvature="0"
       id="path70"
       style="fill:none;stroke:#231f20;stroke-width:2;stroke-linecap:butt;stroke-linejoin:miter;stroke-miterlimit:3.86360002;stroke-opacity:1;stroke-dasharray:none"
       d="m 349.57,36.529 0.567,-24.91" /><path
       inkscape:connector-curvature="0"
       id="path72"
       style="fill:none;stroke:#231f20;stroke-width:1;stroke-linecap:butt;stroke-linejoin:miter;stroke-miterlimit:3.86369991;stroke-opacity:1;stroke-dasharray:none"
       d="m 517.57,36.529 0.301,-25.196" /><path
       inkscape:connector-curvature="0"
       id="path74"
       style="fill:none;stroke:#231f20;stroke-width:2;stroke-linecap:butt;stroke-linejoin:miter;stroke-miterlimit:3.86360002;stroke-opacity:1;stroke-dasharray:none"
       d="m 517.57,36.529 0.301,-25.196" /><path
       inkscape:connector-curvature="0"
       id="path76"
       style="fill:none;stroke:#231f20;stroke-width:1;stroke-linecap:butt;stroke-linejoin:miter;stroke-miterlimit:3.86369991;stroke-opacity:1;stroke-dasharray:none"
       d="m 551.504,36.056 0,-24.91" /><path
       inkscape:connector-curvature="0"
       id="path78"
       style="fill:none;stroke:#231f20;stroke-width:2;stroke-linecap:butt;stroke-linejoin:miter;stroke-miterlimit:3.86360002;stroke-opacity:1;stroke-dasharray:none"
       d="m 551.504,36.056 0,-24.91" /><path
       inkscape:connector-curvature="0"
       id="path80"
       style="fill:none;stroke:#231f20;stroke-width:1.02741003;stroke-linecap:butt;stroke-linejoin:miter;stroke-miterlimit:3.86369991;stroke-opacity:1;stroke-dasharray:none"
       d="m 655.504,35.924715 0,-26.2942845" /><path
       inkscape:connector-curvature="0"
       id="path82"
       style="fill:none;stroke:#231f20;stroke-width:2;stroke-linecap:butt;stroke-linejoin:miter;stroke-miterlimit:3.86360002;stroke-opacity:1;stroke-dasharray:none"
       d="m 684.304,34.513 0,-24.91" /><path
       inkscape:connector-curvature="0"
       id="path84"
       style="fill:none;stroke:#231f20;stroke-width:1;stroke-linecap:butt;stroke-linejoin:miter;stroke-miterlimit:3.86369991;stroke-opacity:1;stroke-dasharray:none"
       d="m 585.133,35.701 0,-24.911" /><path
       inkscape:connector-curvature="0"
       id="path86"
       style="fill:none;stroke:#231f20;stroke-width:2;stroke-linecap:butt;stroke-linejoin:miter;stroke-miterlimit:3.86360002;stroke-opacity:1;stroke-dasharray:none"
       d="m 585.133,35.701 0,-24.911" /><path
       inkscape:connector-curvature="0"
       id="path88"
       style="fill:none;stroke:#231f20;stroke-width:1;stroke-linecap:butt;stroke-linejoin:miter;stroke-miterlimit:3.86369991;stroke-opacity:1;stroke-dasharray:none"
       d="m 81.645,35.302 0,-24.91" /><path
       inkscape:connector-curvature="0"
       id="path90"
       style="fill:none;stroke:#231f20;stroke-width:2;stroke-linecap:butt;stroke-linejoin:miter;stroke-miterlimit:3.86360002;stroke-opacity:1;stroke-dasharray:none"
       d="m 81.645,35.302 0,-24.91" /><path
       inkscape:connector-curvature="0"
       id="path92"
       style="fill:none;stroke:#231f20;stroke-width:1;stroke-linecap:butt;stroke-linejoin:miter;stroke-miterlimit:3.86369991;stroke-opacity:1;stroke-dasharray:none"
       d="m 617.133,35.966 0,-24.91" /><path
       inkscape:connector-curvature="0"
       id="path94"
       style="fill:none;stroke:#231f20;stroke-width:2;stroke-linecap:butt;stroke-linejoin:miter;stroke-miterlimit:3.86360002;stroke-opacity:1;stroke-dasharray:none"
       d="m 617.133,35.966 0,-24.91" /><path
       inkscape:connector-curvature="0"
       id="path96"
       style="fill:#0099ff;fill-opacity:1;fill-rule:nonzero;stroke:#231f20;stroke-width:1;stroke-linecap:butt;stroke-linejoin:miter;stroke-miterlimit:3.86369991;stroke-opacity:1;stroke-dasharray:none"
       d="m 41.57,44.622 c 0,4.165 3.379,7.543 7.543,7.543 4.168,0 7.547,-3.378 7.547,-7.543 0,-4.167 -3.379,-7.546 -7.547,-7.546 -4.164,0 -7.543,3.379 -7.543,7.546 z" /><path
       inkscape:connector-curvature="0"
       id="path98"
       style="fill:#0099ff;fill-opacity:1;fill-rule:nonzero;stroke:#231f20;stroke-width:1;stroke-linecap:butt;stroke-linejoin:miter;stroke-miterlimit:3.86369991;stroke-opacity:1;stroke-dasharray:none"
       d="m 408.867,46.017 c 0,4.164 3.379,7.543 7.543,7.543 4.168,0 7.547,-3.379 7.547,-7.543 0,-4.168 -3.379,-7.547 -7.547,-7.547 -4.164,0 -7.543,3.379 -7.543,7.547 z" /><path
       inkscape:connector-curvature="0"
       id="path100"
       style="fill:#0099ff;fill-opacity:1;fill-rule:nonzero;stroke:#231f20;stroke-width:1;stroke-linecap:butt;stroke-linejoin:miter;stroke-miterlimit:3.86369991;stroke-opacity:1;stroke-dasharray:none"
       d="m 342.594,46.462 c 0,4.164 3.375,7.543 7.543,7.543 4.168,0 7.547,-3.379 7.547,-7.543 0,-4.168 -3.379,-7.547 -7.547,-7.547 -4.168,0 -7.543,3.379 -7.543,7.547 z" /><path
       inkscape:connector-curvature="0"
       id="path102"
       style="fill:#0099ff;fill-opacity:1;fill-rule:nonzero;stroke:#231f20;stroke-width:1;stroke-linecap:butt;stroke-linejoin:miter;stroke-miterlimit:3.86369991;stroke-opacity:1;stroke-dasharray:none"
       d="m 510.324,46.201 c 0,4.168 3.379,7.546 7.547,7.546 4.164,0 7.543,-3.378 7.543,-7.546 0,-4.164 -3.379,-7.543 -7.543,-7.543 -4.168,0 -7.547,3.379 -7.547,7.543 z" /><path
       inkscape:connector-curvature="0"
       id="path104"
       style="fill:#0099ff;fill-opacity:1;fill-rule:nonzero;stroke:#231f20;stroke-width:1;stroke-linecap:butt;stroke-linejoin:miter;stroke-miterlimit:3.86369991;stroke-opacity:1;stroke-dasharray:none"
       d="m 376.316,65.197 c 0,4.168 3.379,7.543 7.547,7.543 4.168,0 7.547,-3.375 7.547,-7.543 0,-4.168 -3.379,-7.547 -7.547,-7.547 -4.168,0 -7.547,3.379 -7.547,7.547 z" /><path
       inkscape:connector-curvature="0"
       id="path106"
       style="fill:#0099ff;fill-opacity:1;fill-rule:nonzero;stroke:#231f20;stroke-width:1;stroke-linecap:butt;stroke-linejoin:miter;stroke-miterlimit:3.86369991;stroke-opacity:1;stroke-dasharray:none"
       d="m 309.137,46.923 c 0,4.168 3.379,7.547 7.547,7.547 4.168,0 7.543,-3.379 7.543,-7.547 0,-4.164 -3.375,-7.543 -7.543,-7.543 -4.168,0 -7.547,3.379 -7.547,7.543 z" /><path
       inkscape:connector-curvature="0"
       id="path108"
       style="fill:#0099ff;fill-opacity:1;fill-rule:nonzero;stroke:#231f20;stroke-width:1;stroke-linecap:butt;stroke-linejoin:miter;stroke-miterlimit:3.86369991;stroke-opacity:1;stroke-dasharray:none"
       d="m 376.316,46.337 c 0,4.168 3.379,7.543 7.547,7.543 4.168,0 7.547,-3.375 7.547,-7.543 0,-4.168 -3.379,-7.547 -7.547,-7.547 -4.168,0 -7.547,3.379 -7.547,7.547 z" /><path
       inkscape:connector-curvature="0"
       id="path110"
       style="fill:#0099ff;fill-opacity:1;fill-rule:nonzero;stroke:#231f20;stroke-width:1;stroke-linecap:butt;stroke-linejoin:miter;stroke-miterlimit:3.86369991;stroke-opacity:1;stroke-dasharray:none"
       d="m 342.594,65.384 c 0,4.164 3.375,7.543 7.543,7.543 4.168,0 7.547,-3.379 7.547,-7.543 0,-4.168 -3.379,-7.547 -7.547,-7.547 -4.168,0 -7.543,3.379 -7.543,7.547 z" /><path
       inkscape:connector-curvature="0"
       id="path112"
       style="fill:#0099ff;fill-opacity:1;fill-rule:nonzero;stroke:#231f20;stroke-width:1;stroke-linecap:butt;stroke-linejoin:miter;stroke-miterlimit:3.86369991;stroke-opacity:1;stroke-dasharray:none"
       d="m 274.773,65.146 c 0,4.168 3.379,7.543 7.543,7.543 4.168,0 7.547,-3.375 7.547,-7.543 0,-4.168 -3.379,-7.547 -7.547,-7.547 -4.164,0 -7.543,3.379 -7.543,7.547 z" /><path
       inkscape:connector-curvature="0"
       id="path114"
       style="fill:#0099ff;fill-opacity:1;fill-rule:nonzero;stroke:#231f20;stroke-width:1;stroke-linecap:butt;stroke-linejoin:miter;stroke-miterlimit:3.86369991;stroke-opacity:1;stroke-dasharray:none"
       d="m 274.773,46.634 c 0,4.168 3.379,7.547 7.543,7.547 4.168,0 7.547,-3.379 7.547,-7.547 0,-4.164 -3.379,-7.543 -7.547,-7.543 -4.164,0 -7.543,3.379 -7.543,7.543 z" /><path
       inkscape:connector-curvature="0"
       id="path116"
       style="fill:#0099ff;fill-opacity:1;fill-rule:nonzero;stroke:#231f20;stroke-width:1;stroke-linecap:butt;stroke-linejoin:miter;stroke-miterlimit:3.86369991;stroke-opacity:1;stroke-dasharray:none"
       d="m 141.684,85.88 c 0,4.168 3.378,7.547 7.543,7.547 4.168,0 7.546,-3.379 7.546,-7.547 0,-4.168 -3.378,-7.547 -7.546,-7.547 -4.165,0 -7.543,3.379 -7.543,7.547 z" /><path
       inkscape:connector-curvature="0"
       id="path118"
       style="fill:#0099ff;fill-opacity:1;fill-rule:nonzero;stroke:#231f20;stroke-width:1;stroke-linecap:butt;stroke-linejoin:miter;stroke-miterlimit:3.86369991;stroke-opacity:1;stroke-dasharray:none"
       d="m 141.684,106.197 c 0,4.168 3.378,7.543 7.543,7.543 4.168,0 7.546,-3.375 7.546,-7.543 0,-4.168 -3.378,-7.547 -7.546,-7.547 -4.165,0 -7.543,3.379 -7.543,7.547 z" /><path
       inkscape:connector-curvature="0"
       id="path120"
       style="fill:#0099ff;fill-opacity:1;fill-rule:nonzero;stroke:#231f20;stroke-width:1;stroke-linecap:butt;stroke-linejoin:miter;stroke-miterlimit:3.86369991;stroke-opacity:1;stroke-dasharray:none"
       d="m 141.684,65.564 c 0,4.168 3.378,7.547 7.543,7.547 4.168,0 7.546,-3.379 7.546,-7.547 0,-4.168 -3.378,-7.543 -7.546,-7.543 -4.165,0 -7.543,3.375 -7.543,7.543 z" /><path
       inkscape:connector-curvature="0"
       id="path122"
       style="fill:#0099ff;fill-opacity:1;fill-rule:nonzero;stroke:#231f20;stroke-width:1;stroke-linecap:butt;stroke-linejoin:miter;stroke-miterlimit:3.86369991;stroke-opacity:1;stroke-dasharray:none"
       d="m 73.957,106.201 c 0,4.168 3.379,7.546 7.547,7.546 4.164,0 7.543,-3.378 7.543,-7.546 0,-4.164 -3.379,-7.543 -7.543,-7.543 -4.168,0 -7.547,3.379 -7.547,7.543 z" /><path
       inkscape:connector-curvature="0"
       id="path124"
       style="fill:#0099ff;fill-opacity:1;fill-rule:nonzero;stroke:#231f20;stroke-width:1;stroke-linecap:butt;stroke-linejoin:miter;stroke-miterlimit:3.86369991;stroke-opacity:1;stroke-dasharray:none"
       d="m 274.773,85.654 c 0,4.168 3.379,7.547 7.543,7.547 4.168,0 7.547,-3.379 7.547,-7.547 0,-4.168 -3.379,-7.547 -7.547,-7.547 -4.164,0 -7.543,3.379 -7.543,7.547 z" /><path
       inkscape:connector-curvature="0"
       id="path126"
       style="fill:#0099ff;fill-opacity:1;fill-rule:nonzero;stroke:#231f20;stroke-width:1;stroke-linecap:butt;stroke-linejoin:miter;stroke-miterlimit:3.86369991;stroke-opacity:1;stroke-dasharray:none"
       d="m 141.684,46.247 c 0,4.168 3.378,7.547 7.543,7.547 4.168,0 7.546,-3.379 7.546,-7.547 0,-4.164 -3.378,-7.542 -7.546,-7.542 -4.165,0 -7.543,3.378 -7.543,7.542 z" /><path
       inkscape:connector-curvature="0"
       id="path128"
       style="fill:#0099ff;fill-opacity:1;fill-rule:nonzero;stroke:#231f20;stroke-width:1;stroke-linecap:butt;stroke-linejoin:miter;stroke-miterlimit:3.86369991;stroke-opacity:1;stroke-dasharray:none"
       d="m 73.957,65.138 c 0,4.168 3.379,7.543 7.547,7.543 4.164,0 7.543,-3.375 7.543,-7.543 0,-4.168 -3.379,-7.547 -7.543,-7.547 -4.168,0 -7.547,3.379 -7.547,7.547 z" /><path
       inkscape:connector-curvature="0"
       id="path130"
       style="fill:#0099ff;fill-opacity:1;fill-rule:nonzero;stroke:#231f20;stroke-width:1;stroke-linecap:butt;stroke-linejoin:miter;stroke-miterlimit:3.86369991;stroke-opacity:1;stroke-dasharray:none"
       d="m 73.957,85.669 c 0,4.168 3.379,7.547 7.547,7.547 4.164,0 7.543,-3.379 7.543,-7.547 0,-4.168 -3.379,-7.543 -7.543,-7.543 -4.168,0 -7.547,3.375 -7.547,7.543 z" /><path
       inkscape:connector-curvature="0"
       id="path132"
       style="fill:#0099ff;fill-opacity:1;fill-rule:nonzero;stroke:#231f20;stroke-width:1;stroke-linecap:butt;stroke-linejoin:miter;stroke-miterlimit:3.86369991;stroke-opacity:1;stroke-dasharray:none"
       d="m 73.957,45.607 c 0,4.164 3.379,7.543 7.547,7.543 4.164,0 7.543,-3.379 7.543,-7.543 0,-4.168 -3.379,-7.547 -7.543,-7.547 -4.168,0 -7.547,3.379 -7.547,7.547 z" /><text
       id="text134"
       transform="scale(1,-1)"
       x="43.408699"
       y="-0.14648201"><tspan
         id="tspan136"
         sodipodi:role="line"
         y="-0.14648201"
         x="43.408699 50.0807"
         style="font-size:12px;font-variant:normal;font-weight:bold;writing-mode:lr-tb;fill:#231f20;fill-opacity:1;fill-rule:nonzero;stroke:none;font-family:Arial;-inkscape-font-specification:Arial-BoldMT">10</tspan><tspan
         id="tspan138"
         sodipodi:role="line"
         style="font-size:12px;font-variant:normal;font-weight:bold;writing-mode:lr-tb;fill:#231f20;fill-opacity:1;fill-rule:nonzero;stroke:none;font-family:Arial;-inkscape-font-specification:Arial-BoldMT"
         y="-0.7469824"
         x="74.75 81.422005">20</tspan><tspan
         id="tspan140"
         sodipodi:role="line"
         y="-0.8371824"
         x="109.3823 116.0543 143.3903 150.0623 173.5583 180.2303 209.1983 215.8703 242.6423 249.3143 275.72629 282.39828 310.29199 314.45599 339.75198 346.42398 353.09598 373.37598 379.45999 386.13199 406.45999 413.13199 419.80399 438.46399 445.13599 451.80798 474.81198 481.48398 488.15601 507.716 514.388 521.06 541.71204 548.38403 555.05603 575.612 582.284 588.95599 606.47906 613.15106 619.82306 644.83112 651.50311 658.17511"
         style="font-size:12px;font-variant:normal;font-weight:bold;writing-mode:lr-tb;fill:#231f20;fill-opacity:1;fill-rule:nonzero;stroke:none;font-family:Arial;-inkscape-font-specification:Arial-BoldMT">30405060708090100110120130140150160170180190</tspan></text>
<path
       inkscape:connector-curvature="0"
       id="path90-9"
       style="fill:none;stroke:#231f20;stroke-width:2;stroke-linecap:butt;stroke-linejoin:miter;stroke-miterlimit:3.86360002;stroke-opacity:1;stroke-dasharray:none"
       d="m 49.3412,35.996302 0,-24.91" /><path
       inkscape:connector-curvature="0"
       id="path82-1"
       style="fill:none;stroke:#231f20;stroke-width:2;stroke-linecap:butt;stroke-linejoin:miter;stroke-miterlimit:3.86360002;stroke-opacity:1;stroke-dasharray:none"
       d="m 655.37544,10.392841 0,24.91" /><text
       xml:space="preserve"
       style="font-size:16px;font-style:normal;font-variant:normal;font-weight:normal;font-stretch:normal;line-height:125%;letter-spacing:0px;word-spacing:0px;fill:#000000;fill-opacity:1;stroke:none;font-family:Arial;-inkscape-font-specification:Arial"
       x="674.41895"
       y="-0.60977668"
       id="text3236"
       sodipodi:linespacing="125%"
       transform="scale(1,-1)"><tspan
         sodipodi:role="line"
         id="tspan3238"
         x="674.41895"
         y="-0.60977668"
         style="font-size:12px;font-weight:bold;-inkscape-font-specification:Arial Bold">200</tspan></text>
<path
       inkscape:connector-curvature="0"
       id="path102-8"
       style="fill:#0099ff;fill-opacity:1;fill-rule:nonzero;stroke:#231f20;stroke-width:1;stroke-linecap:butt;stroke-linejoin:miter;stroke-miterlimit:3.86369991;stroke-opacity:1;stroke-dasharray:none"
       d="m 677.24799,44.971276 c 0,4.168 3.379,7.546 7.547,7.546 4.164,0 7.543,-3.378 7.543,-7.546 0,-4.164 -3.379,-7.543 -7.543,-7.543 -4.168,0 -7.547,3.379 -7.547,7.543 z" /></g></svg>