<?xml version="1.0" encoding="UTF-8" standalone="no"?>
<!-- Generator: Adobe Illustrator 17.0.0, SVG Export Plug-In . SVG Version: 6.00 Build 0)  -->

<svg
   xmlns:dc="http://purl.org/dc/elements/1.1/"
   xmlns:cc="http://creativecommons.org/ns#"
   xmlns:rdf="http://www.w3.org/1999/02/22-rdf-syntax-ns#"
   xmlns:svg="http://www.w3.org/2000/svg"
   xmlns="http://www.w3.org/2000/svg"
   xmlns:sodipodi="http://sodipodi.sourceforge.net/DTD/sodipodi-0.dtd"
   xmlns:inkscape="http://www.inkscape.org/namespaces/inkscape"
   version="1.1"
   id="Layer_1"
   x="0px"
   y="0px"
   width="297.93399"
   height="375.18701"
   viewBox="0 0 297.93399 375.18701"
   enable-background="new 0 0 512 512"
   xml:space="preserve"
   inkscape:version="0.48.4 r9939"
   sodipodi:docname="icon-files.svg"><metadata
     id="metadata13"><rdf:RDF><cc:Work
         rdf:about=""><dc:format>image/svg+xml</dc:format><dc:type
           rdf:resource="http://purl.org/dc/dcmitype/StillImage" /><dc:title></dc:title></cc:Work></rdf:RDF></metadata><defs
     id="defs11" /><sodipodi:namedview
     pagecolor="#ffffff"
     bordercolor="#666666"
     borderopacity="1"
     objecttolerance="10"
     gridtolerance="10"
     guidetolerance="10"
     inkscape:pageopacity="0"
     inkscape:pageshadow="2"
     inkscape:window-width="692"
     inkscape:window-height="716"
     id="namedview9"
     showgrid="false"
     fit-margin-top="0"
     fit-margin-left="0"
     fit-margin-right="0"
     fit-margin-bottom="0"
     inkscape:zoom="0.4609375"
     inkscape:cx="131.61107"
     inkscape:cy="445.76349"
     inkscape:window-x="559"
     inkscape:window-y="24"
     inkscape:window-maximized="0"
     inkscape:current-layer="Layer_1" /><g
     id="g3"
     transform="translate(-107.033,-68.407)"
     inkscape:export-filename="/home/antalcides/Escritorio/apuntes1.png"
     inkscape:export-xdpi="90"
     inkscape:export-ydpi="90"><path
       d="M 362.651,282.143 V 68.407 H 107.033 v 360.761 h 163.128 c 13.728,9.101 30.172,14.426 47.898,14.426 47.998,0 86.908,-38.934 86.908,-86.945 0,-31.682 -16.997,-59.313 -42.316,-74.506 z M 175.611,108.799 h 147.503 v 16.744 H 175.611 v -16.744 z m -35.389,49.174 h 23.043 v 16.777 h -23.043 v -16.777 z m 23.27,71.488 h -23.043 v -16.758 h 23.043 v 16.758 z m 0.377,-103.917 H 140.85 V 108.8 h 23.019 v 16.744 z m 11.126,32.429 H 323.591 V 174.75 H 174.995 v -16.777 z m 0.225,54.729 H 323.817 V 229.46 H 175.22 v -16.758 z m 142.839,213.492 c -38.393,0 -69.533,-31.146 -69.533,-69.546 0,-38.393 31.139,-69.521 69.533,-69.521 38.382,0 69.497,31.128 69.497,69.521 0,38.4 -31.115,69.546 -69.497,69.546 z"
       id="path5"
       inkscape:connector-curvature="0"
       style="fill:#00aeef" /><path
       d="m 367.742,331.586 -8.787,-8.787 c -1.635,-1.59 -4.25,-1.59 -5.859,0 l -48.753,48.765 -25.093,-25.295 c -1.622,-1.609 -4.237,-1.609 -5.833,0 l -8.8,8.787 c -1.622,1.622 -1.622,4.243 0,5.878 l 36.797,37.017 c 1.596,1.622 4.211,1.622 5.846,0 l 60.481,-60.483 c 1.636,-1.608 1.636,-4.242 0.001,-5.882 z"
       id="path7"
       inkscape:connector-curvature="0"
       style="fill:#00aeef" /></g><path
     style="opacity:0.75185188000000003;fill:#bfe9fb;fill-opacity:1;stroke:none"
     d="m 194.19071,372.23332 c -5.31544,-1.04197 -14.68732,-4.35196 -20.82641,-7.35554 l -11.16198,-5.46104 -80.59732,0 -80.5973218,0 0,-178.98305 0,-178.9830512 126.9152518,0 126.91526,0 0.13255,106.8474612 0.13256,106.84745 9.05389,6.5753 c 21.25694,15.43762 33.02802,42.0419 31.49143,71.17514 -2.11438,40.08816 -30.57356,71.99321 -70.93708,79.52624 -13.29876,2.48195 -17.01298,2.45895 -30.52086,-0.18896 l 3e-5,5e-5 z m 29.26496,-15.18356 c 16.08185,-2.9729 25.84723,-7.94472 36.47998,-18.573 13.03129,-13.02577 19.31765,-27.28434 20.41918,-46.31426 1.28365,-22.17604 -4.63006,-37.97265 -19.95142,-53.29403 -15.31357,-15.31355 -31.0981,-21.22355 -53.36855,-19.98208 -19.34393,1.07832 -32.26766,6.72219 -45.62715,19.92569 -11.27336,11.14173 -16.22642,20.756 -19.23201,37.33085 -7.56838,41.73709 21.69798,78.46743 66.16235,83.0361 1.27237,0.13082 8.0753,-0.82742 15.11762,-2.12927 z M 57.414458,152.12203 l 0,-9.87097 -12.474576,0.65063 -12.474577,0.65064 -0.667114,9.22034 -0.667114,9.22034 13.14169,0 13.141691,0 0,-9.87098 z m 160.542372,0.0802 0,-9.79083 -75.38983,0.57048 -75.38983,0.57048 -0.704161,6.14937 c -1.471169,12.84759 -4.936502,12.29131 76.568271,12.29131 l 74.91555,0 0,-9.79082 0,1e-5 z M 57.414458,97.993012 l 0,-9.762712 -13.016949,0 -13.016949,0 0,9.762712 0,9.762708 13.016949,0 13.016949,0 0,-9.762708 z m 160.542372,0 0,-9.762712 -75.9322,0 -75.932206,0 0,9.762712 0,9.762708 75.932206,0 75.9322,0 0,-9.762708 z M 57.414458,48.094707 l 0,-9.762712 -11.932204,0 -11.932203,0 0,9.762712 0,9.762711 11.932203,0 11.932204,0 0,-9.762711 z M 217.5392,48.637079 216.87208,39.416741 142.567,38.845887 68.261915,38.275035 l 0,9.791191 0,9.791192 74.972195,0 74.97221,0 -0.66712,-9.220339 z"
     id="path2990"
     inkscape:connector-curvature="0"
     inkscape:export-filename="/home/antalcides/Escritorio/apuntes1.png"
     inkscape:export-xdpi="90"
     inkscape:export-ydpi="90" /><path
     style="opacity:0.75185188;fill:#bfe9fb;fill-opacity:1;stroke:none"
     d="m 176.58075,309.57992 -19.37376,-19.46393 5.15309,-5.48522 c 2.8342,-3.01687 6.17495,-5.48522 7.42388,-5.48522 1.24893,0 7.92002,5.59029 14.82464,12.42287 l 12.55385,12.42286 24.42436,-24.35507 c 13.43339,-13.39528 25.45924,-24.35506 26.7241,-24.35506 1.26486,0 4.62234,2.47229 7.46108,5.49398 l 5.16133,5.49399 -31.33137,31.38737 c -17.23225,17.26305 -31.85249,31.38737 -32.48941,31.38737 -0.63692,0 -9.87623,-8.75877 -20.53179,-19.46394 z"
     id="path3760"
     inkscape:connector-curvature="0"
     inkscape:export-filename="/home/antalcides/Escritorio/apuntes1.png"
     inkscape:export-xdpi="90"
     inkscape:export-ydpi="90" /></svg>